/* XPM */
static char *result[] = {
/* columns rows colors chars-per-pixel */
"70 50 106 2 ",
"   c #022E5E",
".  c #03315F",
"X  c #052D61",
"o  c #053263",
"O  c #0B3566",
"+  c #063A65",
"@  c #0C3966",
"#  c #0D3669",
"$  c #0E3A6A",
"%  c #113766",
"&  c #123C6C",
"*  c #183E6D",
"=  c #143D71",
"-  c #193F74",
";  c #0D416E",
":  c #14426E",
">  c #1A426E",
",  c #0F4070",
"<  c #164372",
"1  c #1B4573",
"2  c #154976",
"3  c #1D4975",
"4  c #1C4679",
"5  c #1D4B7A",
"6  c #214773",
"7  c #224B76",
"8  c #204778",
"9  c #234D7B",
"0  c #2A4E7A",
"q  c #25517D",
"w  c #29527E",
"e  c #244E80",
"r  c #265281",
"t  c #2B5483",
"y  c #2E5985",
"u  c #2D5788",
"i  c #2E5989",
"p  c #305582",
"a  c #325B86",
"s  c #385E87",
"d  c #305689",
"f  c #345E8C",
"g  c #385F8B",
"h  c #355E90",
"j  c #3A5F90",
"k  c #366087",
"l  c #3A6187",
"z  c #36608C",
"x  c #3A628C",
"c  c #3F688E",
"v  c #366291",
"b  c #3C6592",
"n  c #3E6994",
"m  c #3C6699",
"M  c #3E6A9A",
"N  c #40668B",
"B  c #436A8E",
"V  c #486D8F",
"C  c #416793",
"Z  c #436A94",
"A  c #496E95",
"S  c #446D9A",
"D  c #486F9A",
"F  c #467097",
"G  c #4C7196",
"H  c #46719B",
"J  c #4B729C",
"K  c #52769D",
"L  c #547A9E",
"P  c #4670A1",
"I  c #4C75A1",
"U  c #4F78A4",
"Y  c #5176A1",
"T  c #547BA3",
"R  c #597DA3",
"E  c #557CA9",
"W  c #597EAA",
"Q  c #5B81A6",
"!  c #5681AB",
"~  c #5C83AB",
"^  c #5C83B2",
"/  c #5D88B1",
"(  c #6183A5",
")  c #6186AC",
"_  c #6589AD",
"`  c #6A8CAD",
"'  c #6286B2",
"]  c #648AB3",
"[  c #6A8DB2",
"{  c #668BB9",
"}  c #6C8FB9",
"|  c #6D91B5",
" . c #6D92BB",
".. c #7293B5",
"X. c #7396BC",
"o. c #7599BD",
"O. c #799BBD",
"+. c #7297C2",
"@. c #749AC3",
"#. c #7A9EC4",
"$. c #799EC9",
"%. c #7DA0C7",
"&. c #7CA1CC",
"*. c #7FA4D1",
"=. c #84A7CF",
"-. c #83A8D1",
/* pixels */
"6 o.O._ T T J H J J S 1 J O...Q Y Y J H J H f 9 ..O.` L K J J H H H 9 S %...( L E J J J H z 5  .%.[ Q L Y J H H F q v %...( L K J J G H x @ ",
"0 o.K x k f g g z k f q ~ ) Z x x f g g z k f a } K x l f f z k z z t E { V x s f f g g g f i @.R c k k f f k f k q U  .G N k s f f g f k & ",
"3 ^ x k z f f h f v i < H J k z z z h f f f q q ! x k k f f f g z f 3 S Y k k g h h f f f t 5 / Z z z f v f f f f < v ! l f f f f f f g t @ ",
"$ z i i i d d i i r < + q d f f d d d t t 5 $ ; i f d i f d d t r 2 + e i i i i i i d t 5 , $ h i i h i d d u w 3 + 5 f i i i i i i i 9 : o ",
"5 t y t $ $ 0 g s y t 9 9 y y t = * a s d t 9 9 w y a 9 & 9 g s y t 9 9 y y y : $ t s s y t 9 t i y 9 $ 1 d s a w 9 7 y t d 1 & r g s w w 9 ",
"C C n m = e X..._ J G S C Z Z v 5 H o.| R A A S C Z C d 4 } O.[ K A A Z n Z x 9 f +.X.Q A A C C Z C g * W o.` K A Z C C C C t 9 @.X._ A A C ",
"f v f v 4 d +.T l s f f f z g z 9 ~ ] F k g f g f g f f t &.~ x s s x f f g x r U | J k g g f g z v f 7 { ~ c k g g f f f z f i @.G l g g f ",
"f h h i $ e W z g g f f h z f i 2 H L k f f d f f f g r 9 { C k f d f f f f f 5 z Q x f f f f f z f y : T H k a f g f f f i r q ^ l g f d f ",
"g f t 2 o = z z f f f h f f t 5 + r c k f f f h x d w : & v g f f g f f g t 7 $ 5 c z f f f f f k w < o i z d f d f d g y q ; : v g g f f f ",
"$ 1 6 1 : - 3 9 9 9 4 & < 7 6 > * 1 5 5 7 5 < # 1 7 6 1 > 1 9 9 9 9 $ = 9 7 > > : 7 3 9 7 1 & - 7 7 > > 3 7 7 9 5 = $ 5 6 > > : 1 9 3 7 1 & ",
"* { @.} W W Y U I U S = C X.o.' W W I Y U U f < ' @.} W W Y I U I P 4 h +.X._ ~ W U I I I v 2 ^ %. .) W R I I U H 9 9 +.X.] E R Y U I I v # ",
"0 %.Q S z x j x g f h r ~ | K C g x g v z z i g X.~ A b g v j f f j r W X.L b z f f z z z f y %._ J x g x x v g z t Y $.L Z z x f f f f f = ",
"7 ' C g f f h f g g f 3 U K k k l f f f z k r w ~ c g f f h f f f g 9 H E s g f f f z f z t q ] F l g f f f f h k 5 n / x k f f f f h f y # ",
"* C g f d h h f f d 3 $ i c z k f d h f i w 2 : x f f f d h f f y 9 & u x g f f f h k f t 1 : v x z f f h f f d q ; r v k k f f f f d y 1 X ",
"# 3 e 9 1 4 9 9 9 1 < # : q q 5 2 4 q w 7 1 & @ 1 q 9 5 1 8 r 9 1 1 @ & 9 5 9 4 4 e e 7 1 : # 1 e 9 9 3 4 0 0 6 : @ @ 9 q 9 4 4 5 9 9 1 : @ ",
"S S S m O & E _ ~ U I H n Z S v * y ] ~ ! J J S S S m u & P [ ~ J J H S S S m 3 3 ~ ' E J J S S S S d O b ] ~ I J J S S M n 5 < E _ W J J S ",
"x x v v 4 d o._ G x v x v x v x 9 ~ X.R Z l x z z z z i t &._ G x l x v x v z r H O.( Z l z v z z x f 4 } } K x l x z v z z f y #.( G l l x ",
"f f f f < t ' l g f f f f f f f 3 T R g s g g f f f z y q  .A k f f f h f f g 9 b ~ c g k z f f f f d 1 W J s g g f d f f f r q ] N g d f f ",
"h f d r # 4 S k h h f h h h d q $ x S f h h f f f f y 5 < H x f f f h d h i r : r H z f h f v h f a 7 $ m b f d d f h h f t 2 1 P g f h f h ",
"4 e 5 4 # = r t t u r 9 9 r 9 2 $ < r u r t e 4 r q 3 < : 5 t t u r 5 e t 9 3 & < r u r t e 4 e t 5 > $ 4 t u u r e 5 r 9 3 $ & e r u r e 9 ",
"% J ~ E I I S S S H m # y ~ ~ T I J S S S S t & H _ E K J I S S S m : 9 ~ Q R J I A S S M i $ S / ~ T J J S S S n 1 < ^ ~ E K J D S S S y O ",
"w =.[ K l x g k z x x e ] O.( A l g g z z z f z &.| L x g l x z z f t ^ %._ G s l g g g z h i -.X.R b k g g x z k r E *._ G l l l f f l k = ",
"0 ` b g g f f v h z f 9 E L x f g g f v f z i y ] Z f f f f h g z f 0 U ! l k g g g g f v i t  .G k f f f f f f z q F / x k z f f j h z f $ ",
"1 J k f f f f h v d r & x Z x v g f h f f i 5 3 S z f h f h f f i t = v S k f f z f f f i 5 2 H x f v h h h h f r < k P k f z h f f f i 9 o ",
"X 1 q t t r t t 9 1 *   $ q t r r r t 0 3 : O . 3 w t t t t 0 9 1 :   O r t r t t t t 7 : $ o : t t r t t t y > : . . 9 r t r r t q w & @   ",
"m C b h X X g K K J D S C C C v $ = Y Y J A G n b m C 9   t K K G G A C C C v & O C K K G H A C C C t   9 Y K H G H b n n b > O v K K G A Z ",
"S C C m 1 r $. .~ D C C b n m v 5 ~ #.[ K Z n m m n b f 9 &.X.Q Z C C m C m m r S %.| T Z C C m S m j 1 +.+._ G Z Z b m n m f t &. .R Z n C ",
"h g x z 4 t { G x z f k z v z z 9 Q Q Z k f g v z z k d w @.J l k z h z f h j 9 S _ Z x x f v f f f f 1 ' Y x k k z f f f f f r  .Z l g f k ",
"j f g t # 9 Y k f z f f f h k y , F G k z f z f z f k 5 2 ^ c g f f h d z z y < i T x k f f f f f g q $ U n k g f f f f z y 1 5 Y l z k h g ",
"d t 7 1 o # w y i i u u y d 7 1 + : a d u u u t i r 6 & @ 9 d d d u u u d q 1 @ % y y a i u u u d 9 : @ 1 d y i i i t i r 1 @ $ w s d y u t ",
"# f A Z b b b x v v f $ 9 C A B x b v v v v 9 = h H C b x b j j v z - 4 S S Z l x x x v v r # i D A b x b x v x f < = m D Z x x x v x v t $ ",
"0 =.X.) Z C m x v n v 9 ~ O.| I C C m b C m d d @.+.) S C C C b b v r E #.[ T Z C C b b m f u $.#._ H C C b n m b r S -.| R Z Z m b C m g & ",
"w  .Z z x g f f z f f q R Q x x v f z f z k i a [ G s g f f g z z z t E ~ c k g x h f x f f y  .K k k z v f g g h t I [ B k k f g f z k f * ",
"6 Q x f f f v x z z y < S G l k f f h f z a q q T l f f f f h f f y 3 m J k f f f h z f f r 5 ! c z x z f f f f d 1 z T k k f f f f f g t o ",
"% y u i i i d d y 9 < + 3 y i i i i i y r 5 & % t y d i u d d u 9 1 @ 4 y y y y i i d w 5 : # r d f d i u u y w 3 O : y y y d i i d d 7 :   ",
"t y u u # o t g z f i y t t y t $ & g k f a d r t t u 4 O 4 f g f d t t t y t & o f l g y i t t y y 9 O < j g s a y t y y i * # t x l d f y ",
"D S S S * 9 +.#.} E K J H H H S 5 I %.o.~ T J J J J H h 3 @.#.| L Y I H S S S 5 z %.o.) K I J J H J b * / %...R J I P H H S i 9 %.O.| K Y I ",
"g g g z 3 d  .L B g g z f z k z 9 ~ [ G x z l f f f z i y %.Q B l g z z z z f r H  .J c k g f g k k s 3 { ~ Z x g g g f k k f y X.K x k g f ",
"v z z y $ 9 ! k f v f f h h k i < H J k h i f h h z f q 5 / n f f h h f x f d 2 v E x f f h v h f f t : Y S k k f f f z z k 9 9 ! x k f f h ",
"f i q < o = i i f h i f f f r 3 + 5 z f h i i f h i 9 : # i k f d f f h d r 5 $ < z f f f d d f d r 1 O t f f d f h h i t 5 $ $ f f i f d f ",
"& 8 q 7 3 4 9 9 q q 5 $ 1 w 9 9 3 3 w 9 q 9 1 & 5 q 7 3 1 5 9 q q 9 : < t 9 7 3 3 9 9 q q 4 $ 5 t 9 7 3 8 0 q q 9 < & r w 7 3 1 9 9 9 q 3 $ ",
"1 } X._ K Y J D H H n < S o...( K K H H H H d 7 _ X.` R K J H F H S 9 m #.| ( K J J A H H v 2 { O.` T K K H H H n 9 i @...) K K J S J H z # ",
"0 #.Y C g f f f z z z q / | Z x f f f f z z d k X.Q Z k g x f f g z t W  .G x s f g f k z i i $.( Z g g g g f f z r U +.K x l g f f z f f * ",
"6 ) x l f f h f i z f 1 J J l k f h z f z z r w Q x f f z f z z z d 5 P T a k f f f f f k i 5 ] Z g f h f f f f f 5 n / k f g f f h z z u $ ",
"* v f d d d f f a y 2 @ y k z d f d f i y q ; < k f d f f d i y t 5 # t z i d f i y d d q 2 < v g d g i i i i t 5 + r v a f f f f d i r 2 o ",
"1 9 t 9 * = 9 t w 9 7 > 3 q t e < * t y q 5 1 : 8 r w 3 & 7 p y q 5 1 1 q q r < & w y w 7 5 : 3 q w 9 & 1 t y 9 5 1 : e w w < & 9 y y 7 3 1 ",
"S J P S # - { +.{ R Y I S J D C 2 j +.X.~ I U J D I S g = ^ +.[ R Y J H H H S 4 q  .X.) L Y H H S S z & I +.} R T J J S D S q 4 { X.{ K K J ",
"f f j j 8 d o.) Z k g k f f x z 9 '  .K b f f z f f f d t *._ A l g z g z z h r I X.R c s g k g z g g 7  .{ A k f g f h h v f d %.Q B s g f ",
"f g f f < e W l a a f f f f g i 2 J L k k i h i v z z r q ] c s f i f z z k k 5 z Q l k a f a f f a y > ! F k k f i f f f f t q ! c k k f f ",
"f f y 5 + < m g f f f f f g y 9 + y c i i h i h i i w 2 : n k f f f f f i y q ; 5 v k i f y f g f y > @ z k y i i k f z y q ; ; n k a f i f "
};
