/* XPM */
static char *result[] = {
/* columns rows colors chars-per-pixel */
"64 64 42 1 ",
"  c gray12",
". c #202020",
"X c gray23",
"o c #3C3C3C",
"O c #3F3F3F",
"+ c gray25",
"@ c gray28",
"# c #484848",
"$ c gray29",
"% c #4B4B4B",
"& c gray31",
"* c #505050",
"= c gray32",
"- c #535353",
"; c gray34",
": c #585858",
"> c #5F5F5F",
", c #606060",
"< c gray40",
"1 c #676767",
"2 c gray42",
"3 c #6C6C6C",
"4 c gray45",
"5 c #747474",
"6 c #7B7B7B",
"7 c #7C7C7C",
"8 c #838383",
"9 c #848484",
"0 c gray56",
"q c #909090",
"w c #9A9A9A",
"e c #9B9B9B",
"r c gray67",
"t c #B6B6B6",
"y c #B7B7B7",
"u c gray78",
"i c #D2D2D2",
"p c LightGray",
"a c #DFDFDF",
"s c gray88",
"d c #EEEEEE",
"f c #EFEFEF",
/* pixels */
".X.X.X.X.X.X.X.X.X.X.X.X.X.X.X.X.X.X.X.X.X.X.X.X.X.X.X.X.X.X.X.o",
";-;&;&;&;&%paaapapaaapapaaa.o9rypuppupyur8;.@@@@@@@@@@-&;&;&;&;*",
"-;--;---;-#apupypppuppyppu0.o9uy0r900009r&X.o200900062<@@@%@@@%#",
"00900090.-%auuypyuuyuuyyi0>.orpr0r0r9r0r8;X.o0paaapayyr09000900q",
"ppppyr08.;#aprrer0rrrrerr6=.o0y009rrrr904&X.o9aayuypaaapapupppup",
"rrrrer64.-#dyerrrrer0r9rr2=.X@r0rr90e0r2;-X.o0pyr0r0rre00r0r9r0e",
"yeeer062.%#fpr9r0r0eee00r0&.X@709r0rr9r4XXX.o9ay0r9e900r90e0re0e",
"yr9y9e>;.X#du0e0rre0700r0>;.X@@0rre000r2XXX.o0arr9e7re70r9rr07re",
"err0e4@$ .%uyrer9r0e9e00r2= .%-@6XXXXXXXX .Xo5aa0r89e4e0r007rr4q",
"00904-@@.X@rdrer0000009r8;6 .X@XXXXXXX.X  .@@#uu0000eee90r0rr9rq",
"4244&$XX .%0i0r00700r9r0r2;X.X@X      .X.X.%-#ur0r9r09042<>,<,<,",
"-;@@@   .XO5ar9e667re08702<X.X@@%%470rerre4X&%y024<,<;---@%@%@@%",
"    .X.X.X-#au000ee90r70r0&X.XO4rrpsfppie2=.-@02<>-%@@XXXXX.X.X.",
".X.X .X.XX&@ri0r870r09e084&X .oryapy9r0r84X.XXXXXXXXXXX        .",
"XXXXXXXXXX%%0ur9re87070r0&;X.XOrayr000900&X.X .X .X .X.OOXXXXXXo",
"-$XXXXXX.X-@5u9re0rer9r9r&4@ .%rdr09r0r9r-X.X@;-;;.@%@@%@@@@@@@+",
"ee0e0e0ew .;#uye09ee400002;= .%rd90rr9r00&X.o2rai;@-7ee0eee0eeee",
"puppupyr4O.;@0y0r07009r0202$ .%rurr09r0r8;X.orpur.@7upaaapaaapap",
"re0r0rr24X.-@4er9rr9r402-4-$ .%rur02442-;-X.opur8.%eppyyryyyryyy",
"r0e0r9024X.@-@e04424--4&4-@  .oe0402XXXXXXX.,ar00.@earrer0r0e9ee",
"r00r9rr2;X.@-@<-;-;@@@X       .04XXX       .,arr8.%epr0e9e0e4909",
"r0r0r904&X.@-@.X.X           .XX&X    .X .X.0arr0.@0u9rer0r0e9ee",
"0r4700r2;X.X&;$X       .&%%&%%@000rr0006;.O1yar86.%9ur9e0e9e670q",
"08870r8<@X.o9aaapurr0>X%17rryuuaaapaaaue<.o7auer4.@9yre0r9r0670q",
"00rr900>$X.opur0eer0wX&%7pfaauyyuyuyuyu2;.o0are02.%2u9r00e09r0rq",
"er90r84-XX.oae0err0er.-%eau0r9re9rere08<@.oqdr9r;.%@04>;--<<2709",
"<,<,<-@XXX.oprrr9r0r>.%@edrer07rr090r9r;@.o9drr0;.=.XX@@@@%@@-;-",
"-%@XXX    .oa9r0rr06>.%@ed9r0er9070r000&$.oqd9r0&.;X        .XX#",
"      .X.%%#are9r0r6>.X@ed00r90707090r0&$.o9drr8;.;XXXXXXX.X   .",
"@<<20e0900@.ar4e0r88<X.@qdr0907070r709r-@.oqd0rr&.;@O@&-&;--;XXo",
"10yapappur4.arr870r8<X.@0aye0r0r47070r8;X.o0i00r&.%rapy0>;@@%@@-",
"1rpuuyrrerO.d0er70re2@.%7pur904067r0r88&X.o0ar00=.%a90yaapaaa0X-",
"1ayrr9r0r84.der0rr9r2$.X*uarre0r9r670r2;X.O0i0r0&.%a09rr90r088X*",
"1pye9r0r9r4.de9er0r8<= .:rdrre007067r84@X.%0prr8;.#arr90rr9r0>X#",
"1ar0r0rr7r&.arrr000r<&.X&qdyr0r90e9r0r>@.XO0ie0r&.%ur0rr90r0r>X#",
"1arr00eer8;.ay7e7rre>; .%3pyr07e90e000>X .%0i0r&;.%urer0r90re;X#",
"1py0rr0r9r=.ua9er000>; .%-yar9r0r0r90<-X.X@7r6&XXXOrr0re0r09r;Xo",
"1ayre0r0r0&.ya7r900r2; .X&0yr06<>-@$XXXX.XO;XXXXO@.4&@-;-;--;-Xo",
"1ar0rr9r7r=.eie7rr902; .X-@00>;@X       .X@&@@&-;-;           .o",
"1py09er0r8;.7arer90r<&  .&@X.X   .X.X .X.X@-;@@%@@@%@@XXXXXXXXXo",
"1ayrr9er0r=.:d0e00r8<= .X@@@XXXXX%@$O&%@%@@;-66666666666666664X*",
"1ar00r9r02;.#dr0870r2;  .O16666666666667000eryruyuyuyyuyuyuyu6X*",
"1uyrr0r0r& .*de0r008<;X .o7uyuyuyuuyuyuyuypasfffffffffffpapi0<.%",
"1py0r0rr8;.X+d0r7e9r<&X  .7uufffffasffsfffffaappyyyuyryuyyuy6;.*",
"1yyr0r900&.X#arr9r00>;X  .7uuyuyuyuryuryuyyrree00r0r900r9r0r2;Xo",
"%u90r8424=.X#i90r9r02;X  .1yay009000r9rr00errr07e9rre9r0rre02=.o",
"@yrre0;-= .O@yr90r084-X  .#uay000r0e0er90err9e0e0069ee0r9r0r2;Xo",
"@666;-;-=.XXOeer9002<-X   .yaprr9000709r0e9re690r90r06407e004=.o",
"@X  .;--;.XO%6<,<<,<--X  .orpi09r0r90r067ee9r0r00r907009r0482;.o",
"-;-@X   .XXOXXXXXXXXXXX   .0pyr00r9r709e7e0e7r9070009r0700862;.o",
"@%@@@%@X .X$XX           .o9e2442442r0rr906900700r9r00r9000e2;.o",
"@7rrrr00<%%-XX .X .X .X.X.X-@XX.X.X.;42706666666666666666666<&.o",
"@rupapaayrr02>;$XXXXXXXXXXO;@@XXXXXX.%--;-;-;-;---;-;--;-;--=.Xo",
"@rprr0ypaaayrrrrrrre008662<<&;@@@O@XX.X.X.X.X.X.X            .X+",
"@rarrryr0ryaaapapapaaaaupuyrrrrr8%-@XXXXXXXXX .X.X.X.X.X.X.XXX@%",
"@rar9r67re07r9r0r0rr9r0rrrupappy8X@&%@@XXX.XXXXXXXXXXXXXXXXXO@%-",
"@rurrr0r000er90r640r7090r9r0rrr6<.X&%rpae6%%@---@@O@@@O@@O@@&;--",
"@rur9r67er9rre87r707e9r0r0r9rre<=.X@#arraaapt--%yaapaaappure6%@-",
"@r8<,<,<,<<,<,<<,<,<,<<,<,<,<,<;-X.X#pyryryyt>;7aerr0r9rer0riw.-",
"@0<XXXXXXXXXXXXXXXXXXXXXXXXXXXXXXX .%yryye,e8<@yr0r9rrr9r0r9r=.:",
"@X                                 .&X@X&<,<<>%aeeerr0ereer00&.:",
"-$XXX.X .X .X .X.X .X .X .X .X .X.X.O&;XX    .X-;-----;&-;-;&;.-",
"-;&-@@@%%@%$XXXXXXXXXXXXXXXXXXXXXXXXX&;&-XXXXXX&=             .:",
"XXXXXXXXXXXXXXXXXXXXXXXXXXXXXXXXXXXXXXXXXXXXXXXXXXXXXXXXXXXXXXXo"
};
