/* XPM */
static char *result[] = {
/* columns rows colors chars-per-pixel */
"64 64 142 2 ",
"   c #2B0607",
".  c #240807",
"X  c #350404",
"o  c #3C0303",
"O  c #271E1D",
"+  c #2C1C1C",
"@  c #341A1A",
"#  c #391919",
"$  c #3F2728",
"%  c #342A2A",
"&  c #3C2828",
"*  c #3D3737",
"=  c #383838",
"-  c #430202",
";  c #4C0101",
":  c #530303",
">  c #5B0202",
",  c #550B0B",
"<  c #5A0C0C",
"1  c #401717",
"2  c #4F1717",
"3  c #551615",
"4  c #5D1313",
"5  c #640101",
"6  c #6C0101",
"7  c #6D0807",
"8  c #640708",
"9  c #6F0708",
"0  c #630A0B",
"q  c #6B0A0A",
"w  c #740101",
"e  c #7B0101",
"r  c #7D0807",
"t  c #740C0C",
"y  c #7C0A0A",
"u  c #641211",
"i  c #681010",
"p  c #741313",
"a  c #7B1313",
"s  c #741718",
"d  c #721818",
"f  c #7E1E1E",
"g  c #422626",
"h  c #4A2525",
"j  c #422827",
"k  c #402828",
"l  c #4A2F2F",
"z  c #522424",
"x  c #572F2F",
"c  c #5B2F2F",
"v  c #57302F",
"b  c #472F30",
"n  c #572F30",
"m  c #582F30",
"M  c #413636",
"N  c #4C3232",
"B  c #463E3F",
"V  c #493E3E",
"C  c #533131",
"Z  c #593030",
"A  c #5E3838",
"S  c #622D2D",
"D  c #6D2A2A",
"F  c #7C2626",
"G  c #7F2F2E",
"H  c #623737",
"J  c #603837",
"K  c #6B3F3F",
"L  c #723D3D",
"P  c #7C3A3A",
"I  c #69403F",
"U  c #693F40",
"Y  c #4E4747",
"T  c #4A4848",
"R  c #524646",
"E  c #5C4343",
"W  c #564949",
"Q  c #545454",
"!  c #5B5252",
"~  c #644141",
"^  c #684040",
"/  c #654F4F",
"(  c #6A4E4E",
")  c #744B4B",
"_  c #7A4A4A",
"`  c #635050",
"'  c #7D5453",
"]  c #830101",
"[  c #8C0303",
"{  c #870807",
"}  c #880807",
"|  c #890708",
" . c #840B0B",
".. c #8A0D0D",
"X. c #930303",
"o. c #9C0101",
"O. c #930C0C",
"+. c #9C0E0E",
"@. c #81100F",
"#. c #91100F",
"$. c #9B100F",
"%. c #920F10",
"&. c #9E0F10",
"*. c #851515",
"=. c #8C1414",
"-. c #821C1C",
";. c #8D1919",
":. c #941212",
">. c #9A1212",
",. c #911818",
"<. c #A30101",
"1. c #AB0101",
"2. c #A20E0E",
"3. c #AB0B0A",
"4. c #B30303",
"5. c #BB0202",
"6. c #BA0708",
"7. c #A6100F",
"8. c #B0100F",
"9. c #A21313",
"0. c #AF1011",
"q. c #B11010",
"w. c #8D2121",
"e. c #873737",
"r. c #893737",
"t. c #863738",
"y. c #933434",
"u. c #9C3131",
"i. c #A3302F",
"p. c #AD3C3C",
"a. c #C20101",
"s. c #CB0000",
"d. c #874646",
"f. c #8B4545",
"g. c #814748",
"h. c #914343",
"j. c #994141",
"k. c #9C4B4A",
"l. c #805252",
"z. c #845B5B",
"x. c #895B5B",
"c. c #A25353",
/* pixels */
"= = = = = = = = = = = = = = = = = = = = = = = = = = = = = = = = = = = = = = = = = = = = = = = = = = = = = = = = = = = = = = = = ",
"( C _ L L K K K _ L K ^ E R T ` ^ S L I L K K K L _ _ _ _ _ _ K K K L ^ E R Y R ) g._ _ _ g.g.I I L L c S c K K _ _ I ^ K ^ E N ",
"F w.>.2.3.2.>.+.&.+.2.=.4 I R ) :.q.2.$.>.+.$.+.$.+.$.+.+.+.+.+.$.+.+.:.4 I M ) ,.q.q.3.0.7.3.3.9.9.$.$.2.2.>.%.#.%.+.X.O...4 L ",
"i.>.4.5.5.6.1.1.6.1.5.o.> z R g.8.s.4.4.1.4.<.4.<.4.1.4.1.4.<.4.<.4.4.X.> z R S 2.a.a.5.a.5.4.6.<.4.<.5.5.5.<.1.<.o.3.1.4.X.5 S ",
"u.=.X.o.<.o.<.o.X.o.X.w ; h R _ 2.5.<.o.o.o.[ o.o.X.o.o.X.X.o.o.[ X.X.w ; h W _ +.1.<.X.X.o.X.[ X.o.X.X.<.<.X.o.[ [ o.] o.e : z ",
"u.=.] X.X.[ o.o.X.e { 5 o j Y _ +.1.1.o.X.X.[ X.[ X.[ X.] ] [ X.] } e 6 - j R ^ :.o.o.] [ X.e | ] X.[ X.X.o.[ [ [ ] [ [ [ w - h ",
"y.*.} [ [ X.X.X.] ] { 5 o k Y _ o.4.o.o.[ [ X.X.] [ ] | ] e [ [ [ e | 6 o h M ^ @.X.X.[ X.[ ] { e e X.o.[ X.X.X.X.] [ e O.w - h ",
"y.a e [ | e [ { w r 6 > X $ R ^ O.3.X.[ e | ] ..e { w ] r w e | w e w 8 o g M ~  .X.[ e [ X.e r w e [ | ] | e | e ] | e | 7 o h ",
"e.d y w w 6 6 7 > 5 7 > X $ * ) t [ e 6 5 w w 6 w 6 5 5 7 6 7 6 > 7 5 : X k M ~ a ] w 6 w w 5 w 5 7 6 r 5 6 5 7 5 5 w w 6 0 X h ",
"L , : > : - - - - o - o   % * E , > : : ; ; ; : : ; ; ; - - - - - - - o . & * E < > : : : : : : ; ; ; ; ; ; ; ; ; ; ; : - o . k ",
"E E g g k k g $ & & @ + O % = ! E h k k k j @ @ @ @ @ & & @ @ @ @ & $ & % % T ! N h k k g & g & k k k k + @ @ @ + k k j g & % % ",
"_ x c c Z ^ ^ ^ K x x x m m ~ N R T E ~ ^ ^ U S Z Z _ K K K x x I I I ~ K U ) m U ) ) ) _ ' x.x.l._ ) ~ E B = V ) S _ ^ K K _ H ",
"9.+.+.:... ........... .....@.u E / P -.>.>.$.+.>.$.>.+.:.O.+.+.$.#.......................O.O.O.O.O.O.@.3 ~ V _ >.q.+.>.+.+.$.>.",
"4.1.<.1.o.X.<.o.o.o.o.X.1.o.X.> C ~ j.:.X.1.4.<.4.o.<.<.o.o.3.1.<.o.X.X.o.o.<.o.<.X.1.X.3.<.<.3.4.1.4.X.; n R S q.s.1.1.<.1.<.4.",
"o.o.o.o.[ [ [ ] o.[ ] [ o.X.w ; g E e.=.O.X.o.X.o.o.X.X.] [ ] ] X.X.[ X.[ [ ] X.X.[ ] X.X.o.] X.o.[ X.w o N Y _ +.4.o.<.X.X.o.<.",
"] X.o.[ [ e | ] [ [ { e X.[ 6 - & N e.=.e X.[ X.X.X.] ] ] e { ] ] X.[ ] e ] ] ] | e ] [ X.[ [ ] X.O.] 5 o $ B ^ O.<.<.X.X.[ X.[ ",
"X.X.[ X.] ] ] [ ] [ { e X.e 6 - & N t.*.e X.X.} X.] [ | w w y e [ X.] e ] [ e { e 6 | e X.] ] e X.[ [ 6 o $ * K #.<.o.o.[ [ [ [ ",
"] | e { w e e { e { w e | { 5 o & E f.*. .e [ ] | ] e ] 6 w w w [ ] e w ] | w r 6 y { w [ | w r { e | 6 X @ * K  .o.o.| w  .e ] ",
"w y 6 6 > 7 6 r 6 r 5 5 t 6 > o & E f.t y w r 6 w { w w 5 7 w 6 w { 6 r 6 r 6 w 9 5 r w 6 w > 6 t w w > X @ B )  .X.e 6 5 5 t w ",
"; ; - - - - ; ; : ; - ; ; - o X M R _ 4 : > > : : > > : : : : : : : : : : ; : : ; : : : : ; ; ; ; : : -   + T N u 5 : ; - - ; ; ",
"g g g @ g g g @ @ @ & & g @ + & * Y M E N l h g g g g g l N N N l h $ k @ @ @ @ @ g g h @ @ + @ k k g $ % * T ! E h g & $ & $ k ",
"( ( K c c K _ x _ x K K x c c S I I ) I I I J c H x H N B T E ~ ) c _ K H c S c H H K K ) A c Z J ^ I ^ ) I _ x _ H x H ) ~ E R ",
"j.-.:.>.$.$.+.+.>.&.O.....O.O.O.O.....O.........O.O.@.4 E / d.-.,.2.2.2.+.+.+.+.$.+.:..... ...........| ..................p 2 ^ ",
"p.>.o.4.4.<.1.<.1.o.1.<.1.<.4.4.<.<.o.1.<.1.<.X.1.3.] : C E j.>.1.<.a.4.4.<.1.1.1.1.1.1.X.[ X.o.X.X.o.X.o.<.<.o.<.o.o.<.]  .; z ",
"w.,.X.X.o.o.X.[ [ [ o.o.X.o.o.o.[ ] X.[ o.X.] ] o.] { : g E k.:.2.<.<.[ o.[ X.[ o.o.[ X.] [ [ ] X.[ X.[ X.X.X.[ o.o.X.X.e 5 o h ",
"u.*.e X.X.] ] w { e X.[ X.X.o.X.e e [ ] [ O.e e ] | 6 ; g / c.=.o.X.X.] | e [ ] X.X.[ | e { e e | ] ] [ [ ] X.X.o.o.[ | w > X h ",
"y.a ..] | w | w e ] X.[ e ] X.[ ] e [ X.] [ ] w | e 6 - j ( k.=.] o.] [ ] ] [ X.[ [ e e w e  .e ] e ] ] [ [ X.] X.] [  .e 8 o g ",
"j.p e e  .6 r e  .w | w  .e [ ] w e | ] w y w e e e t - j E f.*.:.] | e | ] | [ e | e  .6 6 6 6 y 6  .w { e [ | ] w 6 w e 6 X g ",
"y.a  .e w 6 6 5 6 5 6 w w w r w 6 w 6 6 5 5 t 6 t 6 > o & N f.a  .w ] w e 6 w w w w w w 6 y 5 t 5 6 t 6 w w 6 y 6 r 5 t 6 8 X h ",
"t.4 0 > : : : : ; : : : : : > : : ; ; ; - ; ; ; ; ; o X & M _ 4 : > > : : : : : : : : : : : : : ; ; ; ; ; : : : : ; ; ; < -   $ ",
"E E N g g g k g k k g j j k k g k k k k N N N k g g $ % % T R E j g g g j j j j @ @ @ @ @ g N N N g @ @ @ g g & k j & g g $ % % ",
") ) _ _ _ U K c I Z N * T ` z.x._ ) ) I ^ U J J x x A m x A _ K I ^ _ v ) ~ ) E V M V C H U _ _ U ^ H Z J K K K ) x ) U K U ) Z ",
"O.O.O.O.O.O.O.O.O. .3 E * _ *.2.:.:.:.:.:.:...| ........ .........@......... .u E ` g.s ,.>.$.#.>.+.:.:.:.:.....................",
"<.1.1.1.1.4.1.1.4.X.; x R c +.4.o.1.o.<.<.X.<.o.1.<.X.o.X.[ <.<.X.o.o.X.o.X.X.> C E h.=.o.<.1.o.1.1.o.<.o.o.o.<.X.o.o.<.o.o.X.o.",
"o.X.o.<.<.o.X.o.X.w o h R _ :.X.<.o.o.o.X.o.X.[ o.X.[ ] ] [ X.X.[ X.] [ X.] { : C ( h.*.[ ] X.[ o.o.X.o.o.o.X.[ [ X.[ X.[ X.[ ] ",
"[ [ X.o.X.X.[ [ | 6 o $ T x =.X.o.o.[ [ [ ] X.] X.[ [ w { w [ [ X.] e | X.] y : N ( c.;.| [ X.[ X.X.X.[ o.X.[ [ ] X.[ X.[ ] [ ] ",
"X.X.[ o.X.X.X.] ] 6 X N T ) =.o.[ X.] | ] w [ [ X.[ ] ]  .w [ [ e ] { ] [ [ w ; N ( c.*.] X.X.] X.] o.X.[ [ X.[ X.[ X.X.[ ] ] ] ",
"[ ] ] [ [ | ] ] { 5 X N T K =.[ X.] e ]  .e ] ] [ ] | w r 6 e { w  .] e [ ] t ; N E f.*.{ [ X.X.] [ [ [ ] | [ [ ] [ [ ..] e { e ",
"6 6 r r 6 6 y 6 6 > o N Y K t ] |  .w y w w { w y w y 6 w 6  .e 6 r 6 r  .6 8 - k E f.a y w  .e ..| ] | ] { ] { e ] w ] e  .y w ",
"- - ; ; ; ; ; ; - o   % T E 4 5 5 5 > : : : > > : : : : ; : : : : : : : : ; - X % E U 3 : > > > 5 5 5 > > 5 > > > > > : : : : ; ",
"& & g g & g g g g $ % % T ! R g # # # @ g g N N N & @ @ @ @ @ h g g g g h $ & % * Y R E k h g g x N E v g h # @ @ j h g g & g g ",
"/ K _ x K x x K U m x c x U K x m m U K K K ~ _ ) I K x x x ) E Y Y / x ^ S K c K I _ K _ x ) U ( ' z.( ^ ^ I x ) ^ ( K ) v / M ",
"F f =.:.+.:.:.:.:...O.....................................y a u N ` D -.>.>.:.:.:.:.:.=.:. ...@. .*.......................a 3 K ",
"p.=.o.<.<.1.X.<.<.o.<.<.X.o.X.X.o.[ o.X.<.X.o.] o.[ <.<.X.[ X.> C E j.>.<.1.o.<.X.<.[ o.X.o.[ o.X.] o.o.X.o.X.X.o.o.X.X.o.[ ; z ",
"u.*.[ ] X.X.] X.[ X.X.X.] ] ] X.[ e X.e [ [ ] e [ [ X.[ X.e e ; j E r.=.X.o.e ] ] ] w ] e X.] | e | ] X.] [ [ X.[ [ X.X.] w o h ",
"u.=.e e X.] ] e ] X.] [ ] ] ] [ w  .] ] w e { w | e ] ] } ] 6 ; g N r.*.] X.w w ] | r 6 { ] e { { w | e ] | ] [ [ X.] [ e t o g ",
"w.*.| [ o.[ ] | } ] X.X.] | e e { w { e ] [ e { | ] X.X.[ e w ; & N r.=.| e [ [ e { w ] e { e e w e e | ] ] [ [ [ [ ] [ [ t o g ",
"j.*.| e [ [ e { e | e [ ] | e y w 6 y w ] e  .e e e | e ] w t ; @ N h.*.{ e e | w e 6  .w { w e 6 y w e e { e e | ] | ] w 5 o g ",
"w.f y w { w e w e { e y e e w y t 5 w 7 > 5 t 5 y w r w y 6 t - @ N f.a w { w e w y 6 w y e 6 t w w 6 t w r w y w y w y 6 q X g ",
"f.4 : > > : : > > > > : : ; : : ; ; ; ; - - ; ; : ; : ; ; ; - o % E _ 4 : > : : > : : : > : : : : ; ; : ; ; ; ; ; : ; ; ; o   k ",
"N E h g g g g g j h g h N N N g @ @ @ @ g & & @ @ @ @ g j @ @ $ % T M E k h g g k j @ @ @ g l N l j @ g g g j @ @ @ g g k $ % % ",
"_ x _ x _ I ) ~ ^ U ^ ) z.z._ ^ ) N ! Y / ~ H c c x H K ) K K x ^ ^ ) C _ ~ U ~ ^ ^ ^ ^ ~ ~ ` ! Q W ~ L I K x z 1 1 z Z ^ ^ ) ^ ",
":.:.:.=.:. ... ............... .@.u E / P f >.2.2.+.:.:.:.:.:. .....@............... .*.y d 3 ~ M ) =.2.:.=.=.:... .........*...",
"o.<.X.<.o.X.X.[ X.o.1.o.o.[ o.[ X.> h E e.:.<.1.1.1.X.<.[ o.o.<.[ o.[ o.o.<.[ o.[ X.[ X.[ 6 - v R _ 2.4.X.o.<.[ <.X.o.X.o.[ o.[ ",
"o.[ [ [ [ X.] [ [ ] | e ] ] [ e w ; j E e.=.] o.[ X.e e w ] X.[ X.[ ] ] [ ] [ ] ] ] e [ e t o l R ) :.X.o.] X.[ X.[ [ X.] | ] w ",
"X.[ w ] | e { e e { e w { ] w r 7 ; j E G *.e ] ] [ e w e { w | w | { e  .e | e e w ] e w 5 o $ Y ) =.[ [ ] ] X.X.[ ] ] e w e e ",
"] [ e { e w { e [ ] | e e e e { 5 - $ E e.*. .w ] | e { w  .e { e { e e e w  .w | ] 6 w r > X j T _ :.<.] e X.[ ] e | e | e ] | ",
"] | ] { w y w ] | ] | e w e | e w - $ E G *.6 { | ] [ ] e e w e w ] w  .6 e e e ] e w w w 5 X $ Y K =.[ | e | ] [ ] e e w | ] [ ",
"e [ ] e w e  .w { e e w ] e | w 9 ; & E t.*.6 | ] | e e w e w ] w e w y e w X.[ e { w r 6 8 o $ * K =.[  .6 w w ..] [ ] w w | e ",
"w t 5 t > 5 q 5 6 7 q 5 t 6 6 7 8 o & E d.i i 5 6 r 6 t > q 5 p 5 t 8 5 t 6 w y 6 7 6 7 5 < X & * E s w 5 > i 5 y w y 6 t 5 t 6 ",
"- - - o o o o - - - o - - - - o X   & R K 2 o X o o o o o - o - - - o o o o - - o o - o o X . O Y / 3 - o o o o - - - - o o - - ",
"j g j k h k k j k j k j k k j k & & % T / E N l b & & g g k j j k j k h k h j @ # # # # g + + O = R K h j j j h k @ @ @ @ @ j l ",
"M ! M ! M M M T R R T R ! ! M R Y Y T Q ! ! ! ! Y Y R ! R R R ! R T = R R R V M * V M * B Y B = B Q Y R * ! R Y R R V M B R Y Y ",
"Q Q Q Q Q Q Q Q Q Q Q Q Q Q Q Q Q Q Q Q Q Q Q Q Q Q Q Q Q Q Q Q Q Q Q Q Q Q Q Q Q Q Q Q Q Q Q Q Q Q Q Q Q Q Q Q Q Q Q Q Q Q Q Q "
};
