/* XPM */
static char *result[] = {
/* columns rows colors chars-per-pixel */
"64 64 98 2 ",
"   c #1F1F1F",
".  c #3A2B0E",
"X  c #372B15",
"o  c #392B12",
"O  c #342C1B",
"+  c #3F3116",
"@  c #3E311B",
"#  c #202020",
"$  c #2B2B2B",
"%  c #332C20",
"&  c #3B3122",
"*  c #30302F",
"=  c #3F392E",
"-  c #323232",
";  c #393836",
":  c #383838",
">  c #413115",
",  c #4B3717",
"<  c #473817",
"1  c #483817",
"2  c #42321B",
"3  c #4A371A",
"4  c #47381A",
"5  c #493919",
"6  c #533C1D",
"7  c #5E3F1F",
"8  c #613F1D",
"9  c #473720",
"0  c #483721",
"q  c #443824",
"w  c #4E3D23",
"e  c #423829",
"r  c #4C3D2A",
"t  c #513C21",
"y  c #5E3F21",
"u  c #603F21",
"i  c #5D401F",
"p  c #564124",
"a  c #5C4021",
"s  c #53422B",
"d  c #454036",
"f  c #4F4232",
"g  c #43403C",
"h  c #4F473D",
"j  c #4E483D",
"k  c #524433",
"l  c #5A4534",
"z  c #504837",
"x  c #5E4A34",
"c  c #514739",
"v  c #574B3E",
"b  c #5C4B39",
"n  c #674927",
"m  c #694827",
"M  c #644A2C",
"N  c #6C4B2C",
"B  c #704D2B",
"V  c #79522F",
"C  c #624A32",
"Z  c #644E39",
"A  c #765230",
"S  c #70533A",
"D  c #404040",
"F  c #4D4742",
"G  c #4B4844",
"H  c #4A4A4A",
"J  c #514B42",
"K  c #5C5346",
"L  c #57544E",
"P  c #59534B",
"I  c #545454",
"U  c #5F5C56",
"Y  c #5C5C5C",
"T  c #625242",
"R  c #6C5A44",
"E  c #625B52",
"W  c #70624F",
"Q  c #6C6356",
"!  c #67645F",
"~  c #6A635B",
"^  c #726254",
"/  c #656463",
"(  c #766F67",
")  c #796E64",
"_  c #736F6B",
"`  c #71706E",
"'  c gray44",
"]  c #7E7B76",
"[  c #7C7B7A",
"{  c #857A6D",
"}  c #89796B",
"|  c #817A72",
" . c #8E8B87",
".. c #8C8C8B",
"X. c #928B83",
"o. c #9A9896",
"O. c #989898",
"+. c #A7A7A7",
/* pixels */
"[ [ ] e w a 7 N i a 7 y 6 a a a a i a a i a 6 > , a y a a 5 t q L / [ [ ' ` ' ' $ $ $ $ $ $ $ H Y ' I / I I H I H H I Y Y / ' [ ",
"[ ' ` K q t i N i a 7 7 a a i 6 7 7 i a a a 6 > , y y a w 9 e K / | | ` | ` | [ H $ $ $ $ $ H / ' I / I H H I I Y / / / / / / ' ",
"' ' ' ! P q 6 n i i a 7 a i i a 6 6 a i a a t > 4 p 6 w q h L ~ ~ z s s s k c ~ ! H $ $ $ H / ' I / I H I Y / / / / / / / / / / ",
"I ' [ ' ! K 4 n i a n 7 i a a i 6 6 a a a a 3 > 3 w 4 q K ~ ] h k s , , > 3 & e ! / H H H / ' I / / / / / / Y I I H H H H H H I ",
"H I ' ' [ ~ 4 M i a a i a 8 a a a i a i y t 3 o 9 e K ~ ] { z s 4 4 < 5 > 5 + q F ] / / / ' I / Y Y / Y Y Y / Y Y Y Y Y Y Y Y Y ",
"H H I ' ` ` q p a a i y a 6 a i i y p 7 t 2 2 q K ~ ] | ~ f s 4 4 < < 4 > 4 @ @ % ! ..+.' I / I H H H H H H H H H I H H H I H H ",
"H H L I ' ] P q t a a a a i i a y p y t > & h L ! ] | z s 3 4 4 4 < < 4 > > 4 X O ! +.[ I / I H H H I H H H H H H H H H H H H H ",
"H H H H I ` ] K q w a a i a a a y t w @ q K ! ! ] ~ k s 4 1 < 4 < < < 4 2 @ 4 X O ! O.[ / I H H H H H H H H H I H H H I H H H I ",
"I H H H D I [ / K q t a a i a w t 2 & P ~ / ] | z s w 5 < 5 5 4 4 > < 4 + X 4 X O ! o./ I H H I H H I H H H H H H I H H H H H H ",
"H H H H H H [ [ ! P q w w t w @ & T / | | | Q k s 6 5 5 1 < < < 4 > < < + . @ X O !  ./ I H H H H H H H H H I H H H H H H I H H ",
"H H H I H H [ ' [ ! P & & & & c L / [ | ~ v s t 5 , , 5 1 < < < 4 < 4 4 4 X @ X d / ../ Y I H H H H H H H I H H H H H H H H I H ",
"H H H H H D ' ' [ [ ! L P L L I / [ [ ~ k r t , , , 5 1 < < < 4 5 . < < 4 . X O H ' [ / Y H H H H H H H H H H H H H I H H H H H ",
"I H H H H : ' ' / I I I / _ O.O..._ Q s w 6 5 6 p , 5 5 < < < < 4 . < 4 4 . X X L ` ../ I H H H H I H H H H I H H H H H H H H H ",
"H H H H - / [ / I I I I G / O... .Q k 4 6 6 , 6 5 5 5 < < < < < 4 . < 4 4 o X O ! ' [ / I H I H H H H H H H H H H H D H H H H H ",
"H H H : / [ ' I I I I I H H '  .| k t , p , , < < < < < < < < 4 4 . 4 < 4 X O d / [ [ / I I H H H H H I I H H H H H H D H H H H ",
"H H : / [ [ / I I I I I H G G / P s 3 p 6 , < < < < < < < < < < + . 4 4 4 X O j ( [ [ / I H H H I H H H H H H I H H H H H H H H ",
"H : / [ [ ' / I I I I I D H I G Q r 3 p 4 1 6 5 5 < < < < < < 4 + o 4 4 > X O K } | | I H H H H H H H I H H H H I H H H H H H : ",
": / / F F / ` I I I I H D I I / Q k 3 6 4 1 < 5 5 < < < < < < 4 o o 4 4 @ X O ^ Z r ! I I H H H H H H H H H H H H H H H I H : D ",
"/ / c r f c / / I I I D D I I I _ k t 6 1 < 1 < < < < < < < < 4 o + 4 2 X 2 R C y r P / D H H H H H H H H I H I H H H H D : D D ",
"/ F r t 4 r F | G I D D D I I I / ^ r t 1 < < < < < < < < < 4 + o @ X X & Q x s y r e / / D H H H H I H H H H H H D : : - : D / ",
"z r p , 4 9 & ! _ H D I D I I I G ] h r 4 < < < < < < < < 4 + o o O O J / | e q e e e ` ' / D D D H H H H D D D : - : D : I / / ",
"t p 5 5 < 4 @ j [ / H I D I I I G ` ~ @ 4 4 < < < < < < < 4 X O X O J / [ [ | Q / ^ ~ ..../ / D : - : - : - - - : D D : I / [ H ",
"p 4 , 5 4 4 @ @ / ' H I D I I I : / [ j q 4 < < < < < 4 4 o X O d Y / I I I L I L L [ ..O.O.' / I : D D D D D D D D : I / ] D d ",
", 5 5 5 < 4 + q E [ / H D I I H : / [ ! @ 4 4 4 < 4 4 4 X O d L / / I G D : D D D D I [ O.O...[ / I : D D D D D : : I / [ h r k ",
"1 1 1 1 < < + q j [ [ / D I H H : / [ [ j X @ 4 4 4 + X O L ! [ / I H D D : : D D D D I [ ....' [ / I : : : : : : I / [ ~ r s 5 ",
"1 1 < 1 5 < > 4 & ! [ ' ; H H G : ' _ [ ! O X X X X O O d ! [ / I H D : D : D : D D : D ' [ ' I I [ / I : : : : I / [ ! z s 4 3 ",
"5 6 6 < < 4 . q & P ` [ / : : : ' ] { { ] G % O O O d H Y [ I I G D H H D : D : D D : H / ' / H H I [ / I I I I / [ / j w 4 1 5 ",
"5 5 6 1 < < . q & j [ ..' / / ` ] K b b K ~ j j G U Y [ [ I I H : D H H D : D D : D - I / ' I H H H I [ [ [ ....[ ` c r 3 1 1 5 ",
"5 5 1 5 5 5 . 4 & j ] ' ..` ( ^ l M y t t k ~ ~ ! ` [ ' I I H : D D D D D - D D : : * I / / G G D G H / [ ....[ ' ! r 3 5 5 1 1 ",
"< 1 < 1 5 > . q & F [ ' ' ` ` J p a n a u p r | [ ` ' I I H D D D H D D D - D D : : G / _ L I F H G G I ~ ` ` / Y P r , 4 6 6 6 ",
"< < 1 1 5 > + q & P ` ..' ' ` ~ s y y a a p q | ` [ I I I D D D D D D D D - D D : : I _ | } ^ ^ ^ ^ ^ ^ ^ { ) E L E w 1 5 p 6 6 ",
"< < < < 4 . > @ & L [ [ / I / | { s s t t 0 e | ] I I H I D D D D D D D D : D D : - ! P Z Z Z Z Z Z Z Z Z 0 s b E ~ w , 1 5 6 6 ",
"< < < 4 + o q O H / [ / I Y I / ] ] r s q = / [ I I H H I H D D D D D D D * D D : L { J u N y y t p y p p 3 a s k } w 4 , 5 5 5 ",
"< < 4 4 @ X & j / / / I Y I I I ! [ ] Q K L [ / I H D D I H D D D D D D : * D : - L ^ y u N 7 7 y y y a a , a p r W w 5 1 6 < 5 ",
"< < < 4 X & G ! / [ I Y I I I I I / [  .]  .[ I D D D H I H D D D D D D : * D : - ! T R y M u y 6 a a a a , y p r Q 3 5 5 < < < ",
"< < 4 @ O j / / ' / I Y I I I I I I / [ ......I D D D H I H D D D D D D - * D * / ( r S u M u y 7 a a a a , a p t ^ 2 3 < < < 5 ",
"< 4 q O H / / [ [ I Y I I I I I I I I / ..O.O.I D D D H I H D D D D D D : * : H ' ( C A 8 m i a i a a a a , a a w Q j & 4 4 4 4 ",
"4 4 @ h / / ' [ / I Y I I I I I I I I I / O.O./ D D D H I H H D D D D D * * - I [ Q N V 8 m i i i a 8 a y 7 a p r Q ~ j @ 4 4 4 ",
"q @ j / / ' [ / I Y I I Y I I I I I H I I / ..' : D D H I H H D D D D D * * * / ] T N V 8 i i a a a a i 6 6 7 t r Q ] ! j & 4 4 ",
"& j ! / [ [ ' / I I I I I I I I I I I H I I ....I : : D I H H D D D D D * * H ' ( b y A 8 m 7 a a 8 a a 6 7 7 p q ~ ] [ / F & @ ",
"G ! / ....[ / I I I I I Y I I I I I I D I I / ' ' * : : I D H D D D D D * * I [ E C u A m 8 7 a i a 7 7 6 a i p q Q [ [ [ / G G ",
"/ / O.O.../ I I I I I I Y I I I I I I : D I I / Y H * - - D H D D D D D * * I [ T N u A B 8 7 a a a i 6 i i a p q Q % $ : I / / ",
"/ [ O.O.' I I I I Y Y I I I I Y I I I H D I I I / I H $ * : H D D D D : * H / ( x y u B A 8 8 a a i 7 6 a i a p q Q $ $ $ $ ; I ",
"$ H ..../ I I I Y Y Y I I I I I I I I H D I I I I H I / I : - H D D D : $ I ' ] C y u m V 8 y i 7 a 6 a i a i p q ~ $ $ $ * # * ",
"$   H [ I I I I Y Y Y I I I I I I D I H D H I I I H / / I * - - : D D : - / [ ] r y y y N 8 7 a a a i a i 6 i p q Q $ $ $ $ # $ ",
"$   H ' I I I I Y Y I I I I I I I I I H D H I I H - / ....I - - - D D - H ' ' ' ~ r p y m m 7 i i a a i i i i p q Q $ $ * $ # * ",
"  H / / I I I I I I I Y I I I I I H I H D H I H : H [ .. .] I * - : : * I [ ' ' ] Q r y a m 7 i i i a 6 6 i i p e ! $ * * # $ $ ",
"H / / / H I I Y Y I I I I I I I I H I D : H D : H I ] j = j ] L * - * * ' [ / : ; / Q r t p n a i 7 7 6 , p p q j ! $ $ $ # $ $ ",
"Y ' ' ' / H I Y Y I I I I I I I I H I H - D : D I / c s q @ j ] / I I / [ / : $ $ ; / _ Q r y y i a a a 6 t q c / /             ",
"[ [ ' ' | / H H I I I I I I I I I H I D - : G I / j r 4 4 @ q & h [ [ [ / : $ $ $ $ ; / _ ~ r t p y a p w 9 j / ` [ [ G H H G H ",
"[ _ ] X...../ G H I I I I I I I D H I D - H I ! h r 4 4 4 2 4 @ q j [ [ H : $ $ $ $ $ : / _ ' P r w w 9 = h / I I I I I I / [ [ ",
"| K b b P X.X./ D ; I I I I I I G H H - H I ! j r 4 4 4 4 > 4 > q & [ / : $ $ $ $ $ $ $ : / [ ' K r q c j ! / I I I I I I H / [ ",
"l M p y C x T | / G : G I I I H G D : H I ! h r 4 4 4 4 4 > 4 @ 2 & ] : $ * $ $ $ $ # $ $ : / [ _ L G G / [ I I I H I I I H / [ ",
"i i i i i a C C K / G ; H I D H : : H / F f r 5 4 4 < > 4 + 4 2 & j ! : $ $ $   $ $ $ $ $ $ : / [ _ / / ../ I H I I I I H D / [ ",
"i 6 7 i i a a p C 0 ^ J ; H H : H L / h s p 6 5 < < 4 < 4 > @ @ j / : $ $ $ $ $     $ $ $ $ $ : / [ ' ....I H H I I I I H F ~ K ",
"a a i i a a a 6 y , r r F : : H I ! h r p 6 , < < 4 4 + 4 > @ & L : : $ $ $ $ $ $     $ $ $ $ $ : / [ ../ I I I I I I H H F ^ C ",
"i a 6 6 a i i 6 y 4 p s r F G I ! h r t p 6 , < < < 4 > 4 @ % G / ; $ $ $ # $ $ $ $     $ $ $ $ $ : / [ I I I I I I I H H P l a ",
"a 8 6 6 i a i 6 y 3 t 4 e L I ! G r 4 6 a 3 < < < < 4 + 4 @ j ! G ; * $ $ $ $ $ $ $       # $ $ $ $ : / [ I I I I I H H G Q C 8 ",
"8 a a a a a 6 3 5 > 4 q P / / j r 4 4 i p , 6 < 5 < 4 2 @ & L / : : $ $ $ $ $ $ $ $         $ $ $ $ $ : / / I I I H H G P x p n ",
"a a 7 a a i 6 4 0 2 q K ] [ [ F 4 4 4 6 p , 5 < < < 4 > & F / : $ : $ $ $ $ $ $ $ $ $     $   $ $ $ $ $ : / I H H H H F Z l 7 7 ",
"n 7 7 7 a a 6 3 @ @ P ] [ [ [ L q 4 5 5 i , 5 5 < < 4 @ j / G : $ : * $ $ $ $ $ $ $ $       $   $ $ $ $ $ # / H G I I F x a a a ",
"7 7 i t a t 3 2 & P [ I g I [ / j 4 5 6 p 1 < < < 4 4 & L / : $ $ : $ $ $ $ # $ $ $ $ $     # $ # $ $ $ $ # I / I I H Q C i 8 a ",
"a i a i y t 4 @ P [ I D D D I ] K q 5 5 i < < 4 4 4 & F / : $ $ * : $ $ $ $ $ $ $ $ $ $       $     $ $ * # I [ H H Q x p i a a ",
"a a a a 6 2 @ K ] [ D D D D D L ~ q 3 6 1 < < < 4 @ j L / * $ $ $ : $ $ $ $ $ $ $ $ $ #       $ $     $ $ # I [ | / Q x y 7 n a "
};
