/* XPM */
static char *result[] = {
/* columns rows colors chars-per-pixel */
"64 64 211 2 ",
"   c gray12",
".  c #232202",
"X  c #21210C",
"o  c #2F2F0D",
"O  c #312F08",
"+  c #353100",
"@  c #3E3C01",
"#  c #3D3D0A",
"$  c #212014",
"%  c #2F2E16",
"&  c #20201B",
"*  c #2E2E1A",
"=  c #302E16",
"-  c #3C3B14",
";  c #3C3A1C",
":  c #202020",
">  c #2D2D24",
",  c #2C2C2C",
"<  c #3B3B24",
"1  c #3A392C",
"2  c #383834",
"3  c #383838",
"4  c #413E00",
"5  c #4B4808",
"6  c #504D04",
"7  c #585507",
"8  c #4E4C16",
"9  c #504C10",
"0  c #575518",
"q  c #6E6C07",
"w  c #716C06",
"e  c #6D6B14",
"r  c #6D6A1C",
"t  c #4C4B23",
"y  c #4B4A2C",
"u  c #575526",
"i  c #54532C",
"p  c #4A4A35",
"a  c #4A493C",
"s  c #545334",
"d  c #585633",
"f  c #57553C",
"g  c #6C6A24",
"h  c #6B692A",
"j  c #77752B",
"k  c #6A6933",
"l  c #67673C",
"z  c #69673B",
"x  c #6A683D",
"c  c #77753A",
"v  c #494943",
"b  c #484848",
"n  c #565544",
"m  c #55544C",
"M  c #545454",
"N  c #676645",
"B  c #686743",
"V  c #696747",
"C  c #66664C",
"Z  c #747344",
"A  c #74724B",
"S  c #7F7E49",
"D  c #666553",
"F  c #65655C",
"G  c #737253",
"H  c #7E7D54",
"J  c #72715C",
"K  c #7F7E5C",
"L  c #646464",
"P  c #6F6F6F",
"I  c #717064",
"U  c #7E7D64",
"Y  c #70706B",
"T  c #7D7D6B",
"R  c gray44",
"E  c #7C7C74",
"W  c #7B7B7B",
"Q  c #817F35",
"!  c #817F3B",
"~  c #817F43",
"^  c #807F4A",
"/  c #807E53",
"(  c #807E59",
")  c #7F8037",
"_  c #858307",
"`  c #9D9A07",
"'  c #848213",
"]  c #84811A",
"[  c #9B9918",
"{  c #B2AD04",
"}  c #B1AB18",
"|  c #838125",
" . c #82802B",
".. c #9A9823",
"X. c #979228",
"o. c #9A972F",
"O. c #99982B",
"+. c #828032",
"@. c #83803B",
"#. c #999733",
"$. c #96933A",
"%. c #99973A",
"&. c #AEAA28",
"*. c #B1AC2C",
"=. c #A3A035",
"-. c #ADA935",
";. c #ADA93C",
":. c #C7C228",
">. c #C5C138",
",. c #DAD437",
"<. c #818043",
"1. c #969543",
"2. c #989645",
"3. c #94934C",
"4. c #928F54",
"5. c #918F5B",
"6. c #949354",
"7. c #95945C",
"8. c #9F9D5E",
"9. c #A19E49",
"0. c #A19D54",
"q. c #ACA844",
"w. c #ABA74D",
"e. c #ABA84B",
"r. c #B2AF48",
"t. c #AAA753",
"y. c #AAA850",
"u. c #AAA75B",
"i. c #B0AD57",
"p. c #8F8F64",
"a. c #8F8E6C",
"s. c #908F63",
"d. c #908E69",
"f. c #949367",
"g. c #9E9C63",
"h. c #9D9C6C",
"j. c #8E8D74",
"k. c #8D8D7B",
"l. c #939276",
"z. c #9D9B73",
"x. c #9C9B7C",
"c. c #A8A664",
"v. c #A8A56B",
"b. c #ADAB6A",
"n. c #B5B162",
"m. c #AAA876",
"M. c #ACAA7C",
"N. c #BEBB73",
"B. c #BEBB7B",
"V. c #C3BE46",
"C. c #C4BF4B",
"Z. c #C3BF54",
"A. c #C2BE5B",
"S. c #C1BE63",
"D. c #C1BD6B",
"F. c #C0BD72",
"G. c #C4C044",
"H. c #C3C048",
"J. c #D9D348",
"K. c #D7D258",
"L. c #D1CE75",
"P. c #F2EE77",
"I. c #8C8C84",
"U. c #8C8C8C",
"Y. c #9B9A84",
"T. c #9A998C",
"R. c #999993",
"E. c #999999",
"W. c #A6A481",
"Q. c #ABAA84",
"!. c #ABAA8C",
"~. c #BCBA88",
"^. c #AAA994",
"/. c #A9A89C",
"(. c #B9B797",
"). c #B7B69D",
"_. c #A7A7A7",
"`. c #A8A7A4",
"'. c #A8A8A3",
"]. c gray66",
"[. c #B6B6A2",
"{. c #B5B5AC",
"}. c #B4B4B4",
"|. c #C6C488",
" X c #D2CF86",
".X c #D8D586",
"XX c #C5C499",
"oX c #D1CE96",
"OX c #D6D498",
"+X c #F1ED84",
"@X c #E6E399",
"#X c #C3C2A3",
"$X c #C2C1AB",
"%X c #CECDA8",
"&X c #D3D3AE",
"*X c #C1C1B5",
"=X c #C1C0BA",
"-X c #D7D7BB",
";X c #E1DFAE",
":X c #E7E5AC",
">X c #C0C0C0",
",X c #D1D1C7",
"<X c #DEDEC4",
"1X c #DEDDCB",
"2X c #D0D0D0",
"3X c #DDDDD3",
"4X c #DCDCDC",
"5X c #EFEFCB",
"6X c #EFEED5",
"7X c #EDEDE3",
"8X c #ECECEC",
/* pixels */
", , , , , , , , , , , = + + + + + O > , , > o + + + * , , , , , , , , % + + + O * , , , , , , , , , , , , , , , , , , , , , , , ",
"M M M M M M M M M M b <XF.A.Z.A.B.;X;X<X<X<X<Xv.y.t.<X  3 U.].4X3X1X,X;XS.S.N.Z k.U.M   a a t t t p a v v v f n m m n n m M M M ",
"M M M M M M M M M M b 1XOXq.&.&.y.0.r.S.D.OX*XXXH.H.p.  3 U.>X{.j.~.<.L.....%.h n M 3   < c O.[ X.1.U E ( A g 8 a p 9 8 p b b b ",
"U.I.j.j.I.U.U.U.  M b 1XOXq.} } e 0.H.H.%.|.$X#X' ;.N   3 '.3X^.a.<.F.+.w ' e u U M 3 X ; 1.:.,.[ e d.).XXF.H.S.C C S.S.s.I.U.U.",
"2X[.u.F.)._.U.U.: M b 1XOX%.[ Q h g.D.%.b.Q.T.j.3.3.f : 3 I.#Xa.s.f.!.Q.h c k f I M 3   # %.,.} e k <.~.@XH.J.K.t x V.>.! ( ,X2X",
"].!.u.u.f P W P : M b 1X|.2.Q w A K g.b.g.l.I.I p.H n : 3 v !.~.f.Q.I.I.K i f I m M 3 X @ %.J.w k a.B.L.F.| ` [ t N o.Q h t l.T.",
"}.T.x d k.U.U.P : b b 3X&X7.e g T /.Y.x.g.f.k.R.I I.m : 3 a K f.~ m.k.'.'.I F Y 3 3 3 X # Q #.e N H n.n.F.@.w o.t I N y p C m.~ ",
"}.}.T k._.U.R M   3 b 3X-Xd./ / x.^.T.-XH H T.].U.U.M : 3 v J a.m.p./.U.U.U.].Y 3 3 3 * - S h k j.a. .K.<.<.r h p R W U.P T H k ",
"E._.'.Y P U.b b : , b 4X=X'.T.( g.B.z.x.k.T.U.U.].U.M : : b m I J n M 3 3 3 3 3 3 3   2 1 ( F l.U !.!.K k.^.U p Y U.E.U.U.`.T D ",
"U.U.U.U.P M b b : , b 4X8X].W Y.+.S.b.A k.U.U.].U.U.M , : b b 3 3 3 3 3 3 3 3 3 & & 3 3 3 W }.{.a.l.E R.T T R.L R E.U.E.U.U._.U.",
"R R P R M b 3 3 : , b 4X4XU.W x.=.H.1.Z /.U.].U.'.U.M , : 3 b 3 , ,           , * 1 2 3 3 W }.E l.y I.^.oX^ k.P U.R E.L R U.L L ",
"M M b b b       : , b ].4X].E.( S.q.3.A T.U.U.E I.Y L 3 : 3 b v y t J ^.'.].].3X-XN < 1 3 R }.I.U D F T 7.# n M L b b b b b b b ",
":       : , , , , 3 M U.4X2XU.( p.7.G k.U.'.W I.l.k.m 3 : 3 b G i.+X@X:X1X4X2X-X;XF.x ; 2 M U.Y F F M a s ; 1 3 3 3 3 , , , , , ",
", , , , , , , , , 3 M R ].2XU.].a.a.k.'.I.U.E.I.N N m 3 : , 3 Q.P.>.%.6.s.!.l.!.6.j 0 . 1 3 3 3 3 3 3 3 1 1 3 , ,             : ",
"3 3 3 3 3 3 3 3 3 3 M b U.2X].U.!.z.G Y.I.W U./.H d n 3 : , b Q.G._ <.M.#.L.oX5.6.7 k ; 1 , , , , , , , , , , 3 3 3 3 3 3 3 3 3 ",
"m a 1 1 1 1 1 2 3 3 M b R =XI./.z.~.a.G '.U.'.I.V s I b : > p M.K.] ( d.V.J.+.s.^ u u ; y p d d m M   b a p p p a v v v p p a v ",
"z.x.x.z.z.x.x.Y.R.,   M b *X#XH s.f.K !.Y U.U.U.I F m M : X 9 L.L.<.U M.K.K.c k.V d 1 ; 8 L.;.e.N M b m ( h.0.8.z.Y.R.Y.g.0.z.z.",
".XF.c.@X@XB.7.G I 3   M b I.XXB N Y.C k.Y P _.U.P U.R b : X 9  X<.a.T p.o.q N '.k.n 2 < @ q.&.] B , b U |.D.D.F.@Xv.^.!.D.A.F.;X",
">.{ Q ;.&.[ g d I 3   M b Y T.F F I.I.Y U.M U.P M P M b : & p U I.T a.%Xl V F m M m 2 X @ 1.) 7 D   b z.H.>.D. .K.#.( Q.V.` Q c ",
"&.Q } *.` Q g d I 3   b M b E.E.R U.L R P R R M P M b ,   : , ].U.I a.G m 3 3 3 3 3 2 $ l 7.<.A n   b z.C.V.<.g.O.o.( z.V.` Q c ",
"! b.$.e.#.e k f m 3   b M b L M M 3 3 3 3 3 3 ,         : : , U.R 2 1 1 &             & D j.K a.m   b T.Q./ k.x.7.S T !.Z.[ Q g.",
"Q.s.b.u.g 0 f k.M 3   b m a * * * > &         & $ $ X X X X , 3 M 2 . . . . o % > > , , U.'.k./.m : b U.].E./.T.^.U ^.K n.1.k Z ",
"s.M.^ / d J I.Y M 3   1 s u 9 @ . X           & p t 9 6 6 8 p U.U.Y.#.[ [ ..#.+.i > 2 L =X4X'.=XL   b U.U./.%Xx.k.^.x.Q.!.U T T.",
"4.~.l.( I.U.U.L b 3 : < 6.D.A.t.f.k.{.}.}.L 3 a B 7.F.D.D.v.-X7X8X6XH.:.:.:.&.#.<.. 1 W 3X=X4X`.I X p U R.^.z.5.M.h.oXz.T ].E.'.",
"3.7.H !.I.U.U.L b 3 : ; Z.&.*.%.K E W W W 3 M p 7.L.v.c h.M.M.x./.T.f. .O._ [ ' h . 1 I.-X!./.$XoX. 6 oX!.x.Q.2.K.K.@.Q.T.E.].E.",
"g.H a.k.I.U.R M 3 3 & - &.` Q e N D C C F : M a h.:Xg.g.6.g.~.M.h.z.K M.) | O.q 0 . 1 I.%Xp.I.^.6.. 6 7.s J N  X*.' g y I R M R ",
"D D F L L M b 3 3 3 : - -._ h C Y.H 3.g C : b v Y.5X Xw.=.S.S 8.H.H.!.T.H M.S k u . 1 k.W.G k./.x . 8 s 1 1 p i 0 0 i y v M M M ",
"M b b 3 3 3 : : : : , ; w.Q C T.x.S | e V & b b E.6XN.r.>.O.^ h.H.| x./.h.g.K C ; . < j.G l.'.3Xs . p > ,   $ X . . X   & 3 3 b ",
"            , , , b b a 6XC T./.H 4.) h C $ 2 b E.6Xc.=.G.w ( ^.x.!.T.K e.) ) C < . 5 oX6X/.4X'.m $ v 3 3 3 3 > > > & & :     & ",
"b F C G k.T.I.U.U.U.b   8XE.E./.H 5.z K C 1 & b E.6Xu.r.[ q K E.W E.].x.-.) H m < . @ u.6X=X$X^.m : v 1 ; - - - - - ; < 1 3 3 3 ",
"L j.N.y.c.s./.`.]._.L   8X].2XI.V !.j.T C < & b E.6Xr.H.O.r U E.].].E.Q.-.' p.m < . e 2.<X^.b.u.f & a x 1.O...-.-.' ] 6 t p v M ",
"D ~.q.;.c k !.^.^./.b   8X_.E.'.U k.E I.D < & b W x.S.O.q j K '.R.E.W z.-.' B m < . 5 6.<X-Xe.%.d & a Z %.w ` ` ` *.;.t.<.Y.2 M ",
"h u...) x a.m.v.v.A D : 8X2X].R.^.U I./.C < $ 3 M Y.6.e | Q s.Y.'.W E.H -._ Z a 2 . @ 7.1X!.q.q d : v T.G c ..[ ) ) e g l U 2 M ",
"h u.1.c J ^.j y.) c D : 8XE.U.R.Q.a.I.E D < & , M /.5Xb.A.S.7.j.E E E / ;.) B b , $ l p.,X#Xq.7 d & b 4X].Q.O.q j j 0 l G F 2 b ",
"C J l.^.I.G %.q.r Z n : 4X].].^.g.m.^.E C < $ , M U.7XXXA.' k U R.R.j.m.O.) N b   $ l.a.,X!.) q - X v 2X].a.#.q 6.T Y.D T.L 2 b ",
"L _.].U.].!.w.#.h A m : 4X>XW Y.B.c.T I.C < $ & b Y 2X#X .e x T U./.x.m.1.h D 3   $ p k.,Xj.e 7 # X a >X].!.1.e H U.E.E.].M 3 b ",
"L 4XE._.U.j.j q k J m : >X4XU.T.c.<.k./.C < < $ v M }.1Xx x T U.'.I.U N C D Y 2   3 v E _.U g @ i < v ].].j.6.) J E.W R E.M 3 3 ",
"L 4X].'.k.z.e r Z J m : }.4XW /.p.p.k.I.D < 8 X 2 M U.=XT.T E P R Y D D Y Y M 3   3 b M 2 1 u 0 < 1 b R M p i i m M M M M M 3 3 ",
"L 4X}.I.m.S 6.c p.x.m & E.4X_.E /./.W U.L n < . 2 M b U.U.Y Y M M v $ 1 b M b     3 b M b b < 1 1 b b     & $ $ &         : : 3 ",
"F 1X(.M.5.g.6.c.f.G m : E 4XE.E./.I.L U.W m < X > v v 1 * * * X X * * * 2 3 3 2 3 2 b b b v a p y t t y v v < < < 1 < 1 3 3 3 3 ",
"N ;Xq.e.h.s.e.o.) A m : M 8X].'.k.k.I._.W m s . > a p t # @ @ @ @ 8 y p m M L L L R R W W E U S ] _ ' +.U T ^ ! H H ^ / T W 3 M ",
"h u.-.' !.x.%.w g B n : b 8XE.I.l.K I.W W m s . > 1 k 3.#.o.o.O.O.%.) H T U.E.E./././.'.'.[.B.S.G.>.&.' XXXX Xt.L.F.e.) #XE 3 M ",
"r u.Q @.Y.T.p.k B N $ , b 8X].I.U C '.U.L m y . $ ; e >.:.:.:.:.:.:.>.#.!.>X].=XY.#X!.$X=X#XZ.*.] ] ' C.n. Xc.|.D.;.&.-.^ D > b ",
"e u.! / /.U.k.k.j.n & , b 8XU.].D D I.U.L m s . $ ; e >.} { { { { { { ) M.=X'./.#X~.f.Y./.x.e.' i.9.H.H.y.<.p.XXu.O.&.' S n , b ",
"r c.S j.I._.I.'.U.M : 3 b 4X]._.'.'.U.'.L m 1 $ & < + u.e.[ ` ` ` ` ` ) q p.*X/.Q.f.f.!.'.T.#Xg.i.S.e.t.H j.T./.J c y.j G m , 3 ",
"8 S K k./.U._.U.L M : 3 b 2XU.U._.U.U.U.L M 1 $ : 1 % p.5.1.[ _ ` ) ) e h A /.*X^.j.U x.$XY.T.!.~.@.<.<.x.^.^.T.I.k.v.c J M , 3 ",
"p k.I.I.U.W L M M   , 3 b }._.U.U._.U.W L M 3   : 3 > }.1XXX$.q q g h A J k.!.$Xk.{.I.Y.g.B.~.x.j.( J d.5. Xv.~./.k.M.A I M , 3 ",
"b W W R L M M M M   , 3 b E.E._.U.U.U.P L M 3   : 3 , }.4X-XS c c c c S x.k.l.^.{.].U.[.F.i.6.p./.I.U.Y.N.t.) Q.T.T.A A I M : 3 ",
"b 3   M M M M M M : 3 b b W L L L L L L M M 3     3 , ].4X,XI U k.5.;.;.! (.k.I.}.E._.).n.$.u.m.m.^.T.[.c.! x./.`.Y.v.v.I M   3 ",
"M M m * * X $ >   , 3 b 3 3 3 3 3 3 3 3 3 3 3   : , , U.2X}.U.}.E.(.;.-.r d.{.U.{.T.k.d. Xt.h h.!.$XR./.z.z./.R.I.j.~.^ I M : 3 ",
"v a y 8 4 4 O = > , 3 b 3 3                     : : , U.E.R R R R J ! g z j._.P ( a.B. Xw.r Q.k./.R.I.U.{.T I.I.).x.j.T.Y M : 3 ",
"v U b.N.Z.A.6.s.C p a n < < = = % % * * % * > > , , 3 M b 3 , , , > O O f I R ( k.W.~.h g ~ T P L W U.U.U.W W {.( C E W L M : 3 ",
"b Q.G.,.>.C.S.F.c.7.Q.s.j g 7 6 @ @ @ @ @ # - < 3 3 b M b b 3 3 3 2 1 1 > v M M m m n f f n m M M M M M M M M m m m M M M : , 3 ",
"b Q.C.J.*.X.$.3.0.m.XXm. XL.D.D.S.y.y.y.w.t.c c T P L F n n v b b b b 3 3 , , , , ,   : , , , , , ,             &   : : : , 3 b ",
"b /.XXg.c.g.XX$X[.*X{.*X^.a.s.7.3.1.1.$.%.O...Q a.U.>X^.b.b.^.].U.b M b 3 3 3 3 3 3 3 3 3 , , , , , , , , , , , , , , , 3 3 b b ",
"b ].>X=XY.#X).!.!.Y.=X].}.=X).Q.4.3.4.3.1.| Q Q k.E.>X<X X Xj.=X( 3 b m a y y ; ; 1 2 3 3 3 2 < - - - - ; < 1 2 1 1 3 3 b b b M ",
"b ].}.2X=X).|. Xw.Q [.}.2X`.2X$XXX~.s.h.a.j.k.k.U.}.`.j. X! U.( L : 3 m t ! q.q.u.z a b b m f u w *...' e h s a y y v b M M M M ",
"b ].>X>X`.j.~ t.Q 7 *X].>X2X]./.^.%X#X$X`.=X].2X].( `.,XM.s.I.L M : 3 b t 0.Q Q Q k 1X4X}.m n 7.A.V.C...] D.Q.!.OX~.[.R.W b b M ",
"b ].U.R L F B ^ 0 G ( R L R ( R F F L P ( U.].U.W L L L D D F M M 3 : 3 p h Q Q h C {.}.}.L m k.( / / ^  .n.!.a.A...A _.4XE.: M ",
"b U.L v 3 2 1 > ; 1 3 3 3 3 3 3 3 3 3 3 3 3 3 3 3 3 3 3 3 3 3 3 3 3 : , b F.Q w z T.L R.U.L b U.U.'.k.Q.D.F.!.Q.o.Q G U.].M : M ",
"b 3 :               : : : : : :         : : : : : : : :           : : , b < 4 0 f L L L L L b L L T.m.D.S.3.( Q.! c J U.U.M : M ",
"M b 3 3 3 , , , , , , , , , , , , , , , , , , , , , , , , , , , , , , , 3 a - ; 1 :     : & 3 b M n k 7 0 u d C i d m M M M : M ",
"M M M M b b b b b b b b 3 3 3 3 3 3 3 3 3 3 3 3 3 3 3 3 3 3 3 3 3 3 3 3 3 v a a v 3 3 3 3 3 3 b v & $ X X X $ $ $ &     : : : M ",
"3 3 3 3 3 3 3 3 3 3 3 3 3 3 3 3 3 3 3 3 3 3 3 3 3 3 3 3 3 3 3 3 3 3 3 3 3 3 3 3 3 3 3 3 3 3 3 3 3 3 3 3 3 3 3 3 3 3 3 3 3 3 3 3 "
};
