/* XPM */
static char *result[] = {
/* columns rows colors chars-per-pixel */
"64 64 34 1 ",
"  c #341E02",
". c #3C1C00",
"X c #4A2706",
"o c #472808",
"O c #492F10",
"+ c #4C3716",
"@ c #473817",
"# c #493817",
"$ c #533513",
"% c #583512",
"& c #5D3A17",
"* c #543C1C",
"= c #5A3B1A",
"- c #603A15",
"; c #623F1C",
": c #683E19",
"> c #523D20",
", c #5C401F",
"< c #574121",
"1 c #594120",
"2 c #6E4723",
"3 c #654927",
"4 c #694825",
"5 c #654929",
"6 c #6C4E2B",
"7 c #734722",
"8 c #734C27",
"9 c #794B26",
"0 c #714C28",
"q c #7E603F",
"w c #7C6042",
"e c #835F3B",
"r c #80603D",
"t c #806040",
/* pixels */
"OOOOOOOOOOOOOOOOOOO+OOOOOOOOOOOOOOOOOOOOOOOOOOOOOOOOOOOOOOOOOOOO",
"5555555555555455433333333555555555555545555565555555555555555555",
"eeeeeetttttteettrrrrrreettteqeeetttttttttettttteeeteeeeeeettwtte",
"&&&-&-&X=.X-&&--%---&&&&&X=.X&&&-X=.X----=-X&.X-&&&-&&&&--X&.o-:",
"++48886=w.&e>$+$$46$4$3$+*w.&e6$0=w.&e;$$$>=w.&e$6+$6$6%08&q =e7",
"++4886;*w.&e4$##,66$3+3$+*w.&e6$0=w.&e0>*>0>w.&e$6#+6$6$08-q >e7",
"@+,680=*w.&e6=#+,63$3$3++>w.&e3$6>t.-e00;02=w.&e$5##5$6$07-e.>e7",
"*+*306=*w.&e0>++,63#3$3++*w.&e3$0=w.-t09006=w.&e$6##5*6$00-t >e7",
"5++10>+*w.&e0=$>403$3+3#+*w.&e5+6=w.&e88800=w.&e$6##6$6$20-r >e-",
"5$*+1=+*w.-e02%>86,+3$3$+*w.&e1$6>w.-e88886=w.&e$6##6$6$20-r >t&",
"6*+#*++>w.=e00;278,+3+3$+*w.&e1+5=w.&e88806=w.&e$6##6#6$=0-t >q-",
"6=+##+*>w.&e802086=+1*3#@*w.=e$+6=t.-e80802=w.=e$6##6$6$;6&t >w%",
"26$#+>6=w.-e887086,#3$3+#*w.&e$16=w.-e20800=t.&e$6<@6$6*%6&r >q%",
"26*++>6=w.&e888074##1+3$+*w.&e+16=w.-e20804=w.&e$6@@5$6=$6&r >q%",
";06$=66=t.&e898884##6+3+#*w.&e$66=t.&e;0005;w.-e$3@@6$6=$6&q >q%",
"=660=0>=w.&e708084+#3+3+#>w.&r;66>t.&e$502>>w.&e$4@@5$6&$6&r >r=",
"$400;6=>w.&e22800,+#3+3++*w.=r;04=w.&e$16>+>w.&e$6<@3<4,,2,e <q,",
"$30800=*w.&e;00801+#3+3$#*w.-e004=w.&r++1++*w.&e$6@@3$4,<;,e ,q,",
"+,4006+*w.&e;6006=##1$3+#*w.&e80==w.&q+#++#*w.&e<3@O3,84,4,9 ,e:",
"#*400;+*w.&e=4006=+*3+3$#*w.&e821*w.&r+##@#*w.&e$3O<3<84O,,q ,r7",
"++>66=+>w.&e&4883+@<3$3#+*w.-r73$*w.&q+#@##*w.-e$3<O<<83$,&r *r7",
"+*=66=+>w.=e$,683$@,3#3$#*w.&r6,+>w.&e=++#>*w.&e,3@@,<86+1&r *r7",
"*@*1*++*w.&e+,66,+#<3$3#+*w.&r3$+*w.&e4;+15=w.&e$3<@3,:8++=r *r7",
"*##*#+>*w.&e+*33,+#,3$3#+*w.-r,+#*w.&e06;50=w.&e$3<O3,:3*$&r *e7",
"*#####**w.&t+*,,+#+,,#3++*q.&r+#+>w.&e88206=w.&e$6##6$;6*+&q >e:",
"1+@###5*w.&r++**##+5*#3#+*w.&r+##*w.&r88886=w.&e$6##6$=61$&q *w-",
"5+###+5=w.&r+@##@@+3,@3$@*w.&q+#>*w.-e88806=t.-e$6##6$=61$&e >e&",
"3,###*>*w.&r+@@@@@,6#@3+#*w.&q+#**w.-e88882=w.&r$6@@6$&65=&q >w%",
",*##+***w.&r+@@@@#,6+#3##*w.=q+#1>t.-e28886=w.-r$6@@6+*64=&q >q%",
"*5#@+5**w.&r+@@@@+,6##3$#*w.&r++5=w.-e28886=w.-r$6#@6$$66=%q >w%",
"=5*++5+*w.&r+##@@#46$+3#+*w.&r+*5=w.-e;0864=w.&r$6##6+$66;&q >q$",
"+,*+5,+*w.&r*#@#@+46##1$+*w.&r$,6=w.&e;5886=w.&r$6##6$$302&q *q%",
"+*5=5*+*w.&e>+##+*64@<3$+*w.&e=56=t.&e$500>*w.&e$6@+6+$382-r >q%",
"+*5=5=+*w.&e6*+#+,64+*3++>w.&e;66=w.-t$>08*=w.&e$6@+6=+,68-r *q%",
"##15>$+>w.&e8;++*,6=$,3++*w.&e200=w.-r$+5>#*w.&e$6++6*+,88&r *q&",
"##*1*+#*w.&e85*+=66=@,3+#*w.-e886=w.&r+#>++*w.&e$5@+3=+=88&r *q&",
"@##>###*w.=e801+;60=+,3++*w.-e884=w.&r+###+>w.&e$6+#6=+=68&e >r:",
"#@#@#@#>w.&e800;006$+53++*w.-r884=w.&r+##@+>w.&e$6##6,#=08-q >e8",
"##@###**w.&e8808003$$35$#*w.-r88==w.&e+#@##*w.&e$6@#6,++48-e >e7",
">#@@##**w.-e2888805$+63+#>w.-r821*w.&e1####>w.&e$6@#66#+38&e >e7",
"*+####1*w.&e280880,+$61+#>w.&e05$*w.&e1++#+*w.&e$6#+34++=0-r >r-",
"5*###*1*w.&e;60800*+$6<*+*w.-e0;+>w.&e5,+#<*w.&e$6#+46++10&r >t-",
"3*+#+=5=w.&e&68880++$61##*w.&e4>+*w.-e0;+11=w.&e$6#+,6*+=4&r >w%",
"3=*+*15=w.&e$38804++*6+##>w.&e5$+>w.&e053>5=w.&e+6#+,6*+=5&r *q%",
"43=**3=*w.&e$,088,+#,6+##*w.&e1++>w.-r00-46=w.&e$6@#=6*+*,&r >w%",
";5==,3=*w.&e+*463*#+46###*w.&r+++*w.-e88206=w.&e$6##*6,++,&q >q$",
"=35;44**w.&r++*3,+#+46+##*w.&r+#**w.-e88000=w.-e$6#+=6,*+*&q >q%",
"=44;46+*w.&r+##**##+64###*w.&r+#>*w.&e89806=w.-e$6+#*64*+*=q *q$",
"+50004$*w.&r*+#####*64##+*w &r+#>*w.-e88805=w.&e$6@@+63=#*%r <q+",
"+=0802+>w.&e*+#@@#+16,+#+*w.&r$*5=t.-e28804=w.&e$6###36,++,r ,q$",
"+*4005+*w.=r,+#@@#+36,+@@*w.&e$10=w.&e2080;=w.&e$6##$66,*+-r *q$",
"+*600=+>w.&r3*+@@#$46$+@#*w.&e=56=w.-e;0001*w.&e$6+##,24=+%q *r-",
"@+,64,+*w.-e6=+@@#=63$#@#*w.&e206=t.&e;604*=w.&e$3@O@,62>+&e >q-",
"@+*33=+*w.&e0,+@#+,63++<#>w.&e800>t.&e=404**w.&e$6<OO,36;=&w >e:",
"@#*3,*+*w.&e44*+#+46,#+,+>w.&e880=w.-e&08>+*w.&e$6<@@,,65&-e >e;",
"@@+,1+#*w.&e26*++*40+#+5+*w.-e886=w.&t$>5*+*w.&e$6<@@#,65&&e >e8",
"#@+*>++*w.&e;63=$=66+++3+*w.&e886=t.&q+*>++*w.&e$6*##+=50&-r >r7",
">#@#@+**w.&e%564=604+++5+*w.&e800=w.-e++>#+>w.&e+51+#+*>02&r *e9",
"*##@@@**w.&e$=880001+++5+*w.&e885=w.&r+@###>w.&e$35$##+=62-t.>e9",
">###@#5*w.&r+$66005$#+,6+*w.-e884=w.&q+@@#+*w.-e+15*##+*52-r >e9",
">=##+*5=w.&r+#15041+#+56+*w.&e74,=w.&r+#@@#*w.&e$16*+@@+3>%e >ee",
"6=+#+*5=w.&r+#+,5=++++26$>w.&e84,*w.&r+#@##>w.&e++6=+@@@+*&q >e:",
"2>+++*5=w.-r+#++>*##+6601*w.&e2>+*w.&q++@##*w.&r1+6,+@@@++&e.%ee",
">31>3>1=w.&r1#######<1;;1*w.&e3+#*w.&q,+##<*w.&r1+,,+@@@@+=t %e-"
};
